<svg xmlns="http://www.w3.org/2000/svg" viewBox="50 410 245 260">
<g fill="#0a0a0a">
<path d="M343.3,517.5v-98.8h58.6c12,0,23,2.4,31,10.6,5.4,5.4,8.4,12.5,8.4,20.5s-3.3,15.1-8.5,20.4c-7.7,7.7-17.4,10.6-31.3,10.6h-38.8v36.7h-19.3ZM362.6,435.9v27.8h38.8c8,0,12.9-1.4,16.7-5,2.4-2.4,3.8-5.6,3.8-8.9s-1.2-6.3-3.3-8.5c-4.9-5.2-11.8-5.4-16.7-5.4h-39.3Z"/>
    <path d="M515.8,418.6h17.4l49.1,98.8h-21.2l-12-24.9h-50.1l-12,24.9h-20.2l49.1-98.8ZM506.3,477.3h35.3l-17-35.5h-1l-17.2,35.5Z"/>
    <path d="M627.4,517.5v-98.8h51.5c20.4,0,30.4,5.2,39.5,13.7,8.9,9,13.6,21.6,13.6,35.7s-4.7,27-13.9,36c-9,8.4-19.1,13.4-39.1,13.4h-51.5ZM678,500.2c13.4,0,18.8-3.1,24.5-8.2,5.9-5.9,9-14.4,9-24s-3.1-17.9-8.9-23.8c-5.7-5.2-11.5-8.4-24.7-8.4h-31.3v64.4h31.3Z"/>
    <polygon points="843.3 474.5 802.9 474.5 802.9 500.2 873.5 500.2 873.5 517.5 783.6 517.5 783.6 418.6 869.5 418.6 869.5 435.9 802.9 435.9 802.9 457.4 843.3 457.4 843.3 474.5"/>
    <polygon points="943 418.6 943 500.2 1007.3 500.2 1007.3 517.5 923.6 517.5 923.6 418.6 943 418.6"/>
    <polygon points="457.2 534.5 457.2 658 419.2 658 419.2 609.3 381.3 609.3 381.3 658 343.3 658 343.3 534.5 381.3 534.5 381.3 575.1 419.2 575.1 419.2 534.5 457.2 534.5"/>
    <path d="M544.2,531.1c-38,0-68.9,29.1-68.9,64.9s30.3,65.4,68.9,65.4,69.6-29.3,69.6-65.4-31.2-64.9-69.6-64.9M544.2,626.8c-16.5,0-29.8-13.8-29.8-30.8s13.4-30.2,29.8-30.2,30.5,13.5,30.5,30.2-13.7,30.8-30.5,30.8"/>
    <path d="M743.5,534.5v77.1c0,29.8-23,49.8-57.1,49.8s-56.8-20-56.8-49.8v-77.1h38.1v77.1c0,11.2,9.7,15.2,18.8,15.2s19.1-1.5,19.1-15.2v-77.1h38.1Z"/>
    <path d="M881.2,616.8c0,27.9-21,44.6-56.3,44.6s-45.5-7.6-64.7-23.2l-5.4-4.4,22.4-27.1,5.3,4.3c9.9,7.9,23.6,17,42.7,17s18.1-2.7,18.1-8.7-1.7-5.7-21.3-7.4c-21.8-1.4-58.6-3.7-58.6-39s28.2-41.7,52.3-41.7c42.9,0,60.7,21.3,60.7,21.3l-23.8,21.1s-13.2-8.6-37.6-8.6-13.7.2-13.7,6.5,14.2,4,20.3,4.5l2.1.2c18.6,1.3,57.6,3.9,57.6,40.8"/>
    <polygon points="936.1 569.2 936.1 576.6 981.2 576.6 981.2 611.2 936.1 611.2 936.1 623.5 1007.3 623.5 1007.3 658 898.2 658 898.2 534.5 1007.3 534.5 1007.3 569.2 936.1 569.2"/>
    <path d="M1016.2,436.4c-1.3,0-2.4-.2-3.5-.7-1.1-.5-2-1.1-2.8-1.9-.8-.8-1.4-1.8-1.9-2.8-.4-1.1-.7-2.2-.7-3.5s.2-2.4.7-3.5c.5-1.1,1.1-2,1.9-2.8.8-.8,1.7-1.4,2.8-1.9,1.1-.5,2.3-.7,3.5-.7s2.4.2,3.5.7c1.1.4,2,1.1,2.8,1.9.8.8,1.4,1.7,1.9,2.8.4,1.1.7,2.2.7,3.5s-.2,2.4-.7,3.5c-.5,1.1-1.1,2-1.9,2.8-.8.8-1.8,1.4-2.8,1.9-1.1.5-2.2.7-3.5.7M1016.2,434.8c1.1,0,2-.2,2.9-.6.9-.4,1.7-.9,2.3-1.6.7-.7,1.2-1.4,1.5-2.4.4-.9.6-1.9.6-2.9s-.2-2-.5-2.9c-.4-.9-.9-1.7-1.5-2.3s-1.4-1.2-2.3-1.5c-.9-.4-1.8-.6-2.9-.6s-2,.2-2.9.6c-.9.4-1.7.9-2.3,1.6-.7.7-1.2,1.4-1.5,2.3-.4.9-.5,1.9-.5,2.9s.2,2,.5,2.9c.4.9.9,1.7,1.5,2.4.7.7,1.4,1.2,2.3,1.6.9.4,1.8.6,2.9.6M1012.4,432.4v-9.8h4.2c1.3,0,2.4.3,3.1.9.7.6,1.1,1.5,1.1,2.5s-.4,2-1.1,2.6c-.7.6-1.8.9-3.1.9h-1.8v2.9h-2.4ZM1014.8,427.7h1.6c.6,0,1.1-.1,1.5-.4.4-.3.5-.7.5-1.2s-.2-.9-.5-1.2c-.4-.3-.8-.4-1.5-.4h-1.6v3.2ZM1018.7,432.4l-2.4-3.7h2.4l2.4,3.7h-2.4Z"/>
    <path d="M276.3,418.6H54.9v113.7c0,41.9,0,71.8,41.9,95.7,23.2,13.3,47.9,23.9,77.8,29.9,29.9-6,54.6-16.6,77.8-29.9,41.9-23.9,41.9-53.9,41.9-95.7v-113.7h-18ZM72.9,436.6h95.7v83.8h-95.7v-83.8ZM168.6,532.3v12h-95.7c0-4,0-8,0-12h95.7ZM102.8,610.1c-11-6.6-17.9-14.7-22.3-23.9h37.2v29.9h-4.5c-3.4-1.9-6.9-3.9-10.4-6M73.1,550.3h44.6v29.9h-39.7c-3.3-9.3-4.5-19.5-4.9-29.9M123.7,550.3h44.9v29.9h-44.9v-29.9ZM168.6,616.1h-44.9v-29.9h44.9v29.9ZM168.6,622.1v16.4c-14.7-4-28.9-9.1-43.8-16.4h43.8ZM246.4,610.1c-23.5,14.1-44.1,22.4-65.8,28.4v-106.1h95.7c0,29.9,0,59.8-29.9,77.8M276.3,520.4h-95.7v-83.8h95.7v83.8Z"/>
    <polygon points="216.5 592.2 216.5 574.2 240.4 574.2 240.4 586.2 258.4 586.2 258.4 574.2 258.4 562.3 258.4 544.3 240.4 544.3 240.4 562.3 216.5 562.3 216.5 544.3 198.5 544.3 198.5 562.3 198.5 574.2 198.5 592.2 216.5 592.2"/>
    <path d="M135.7,454.5h-44.9v47.9h18v-18h26.9c8.3,0,15-6.7,15-15s-6.7-15-15-15M129.7,472.5h-20.9v-6h20.9c1.7,0,3,1.3,3,3s-1.3,3-3,3"/>
    <path d="M198.5,457.5c3.3,0,6-2.7,6-6s-2.7-6-6-6-6,2.7-6,6,2.7,6,6,6"/>
    <path d="M228.5,457.5c3.3,0,6-2.7,6-6s-2.7-6-6-6-6,2.7-6,6,2.7,6,6,6"/>
    <path d="M258.4,457.5c3.3,0,6-2.7,6-6s-2.7-6-6-6-6,2.7-6,6,2.7,6,6,6"/>
    <path d="M198.5,481.5c-3.3,0-6,2.7-6,6s2.7,6,6,6,6-2.7,6-6-2.7-6-6-6"/>
    <path d="M228.5,493.4c3.3,0,6-2.7,6-6s-2.7-6-6-6-6,2.7-6,6,2.7,6,6,6"/>
    <path d="M258.4,493.4c3.3,0,6-2.7,6-6s-2.7-6-6-6-6,2.7-6,6,2.7,6,6,6"/>
    <path d="M213.5,475.5c3.3,0,6-2.7,6-6s-2.7-6-6-6-6,2.7-6,6,2.7,6,6,6"/>
    <path d="M243.4,475.5c3.3,0,6-2.7,6-6s-2.7-6-6-6-6,2.7-6,6,2.7,6,6,6"/>
    <path d="M213.5,511.4c3.3,0,6-2.7,6-6s-2.7-6-6-6-6,2.7-6,6,2.7,6,6,6"/>
    <path d="M243.4,511.4c3.3,0,6-2.7,6-6s-2.7-6-6-6-6,2.7-6,6,2.7,6,6,6"/>
</g>
</svg>